<svg width="22" height="33" viewBox="0 0 22 33" fill="none" xmlns="http://www.w3.org/2000/svg">
<path d="M15.7535 27.709V28.9339C15.7535 29.9086 15.0105 30.7195 14.0437 30.8575L13.7304 31.9703C13.5604 32.5741 12.9964 32.9968 12.3429 32.9968H9.23673C8.58326 32.9968 8.01931 32.5741 7.84923 31.9703L7.54487 30.8575C6.56915 30.7109 5.82616 29.9086 5.82616 28.9253V27.7004C5.82616 27.0448 6.37221 26.5186 7.05254 26.5186H14.5271C15.2075 26.5272 15.7535 27.0534 15.7535 27.709ZM21.5094 11.1986C21.5094 13.9849 20.3636 16.5123 18.5017 18.3669C17.0873 19.7816 16.1742 21.5845 15.8699 23.5081C15.7356 24.3362 14.9926 24.9486 14.1154 24.9486H7.46431C6.596 24.9486 5.84407 24.3448 5.71875 23.5167C5.40544 21.5931 4.48342 19.7644 3.06907 18.3583C1.24294 16.5296 0.106082 14.0453 0.0792269 11.3108C0.0165656 5.56579 4.76092 0.916323 10.7227 0.873193C16.6755 0.830062 21.5094 5.47091 21.5094 11.1986ZM12.0028 4.94471C12.0028 4.30638 11.4657 3.78019 10.7943 3.78019C6.53334 3.78019 3.06012 7.11849 3.06012 11.2331C3.06012 11.8715 3.59721 12.3977 4.26858 12.3977C4.931 12.3977 5.47705 11.8801 5.47705 11.2331C5.47705 8.40378 7.86713 6.10924 10.7943 6.10924C11.4657 6.10924 12.0028 5.59167 12.0028 4.94471Z" fill="black"/>
</svg>
