<svg width="25" height="24" viewBox="0 0 25 24" fill="none" xmlns="http://www.w3.org/2000/svg">
<path d="M21.3379 0H3.66211C1.64299 0 0 1.55171 0 3.45866V20.1525C0 22.0594 1.64299 23.6111 3.66211 23.6111H21.3379C23.357 23.6111 25 22.0594 25 20.1525V3.45866C25 1.55171 23.357 0 21.3379 0ZM12.5488 17.985C8.91399 17.985 5.95703 15.1923 5.95703 11.7594C5.95703 8.32654 8.91399 5.53385 12.5488 5.53385C16.1837 5.53385 19.1406 8.32654 19.1406 11.7594C19.1406 15.1923 16.1837 17.985 12.5488 17.985ZM19.873 6.91732C18.6615 6.91732 17.6758 5.98636 17.6758 4.84212C17.6758 3.69788 18.6615 2.76693 19.873 2.76693C21.0846 2.76693 22.0703 3.69788 22.0703 4.84212C22.0703 5.98636 21.0846 6.91732 19.873 6.91732Z" fill="white"/>
</svg>
