<svg width="125" height="104" viewBox="0 0 125 104" fill="none" xmlns="http://www.w3.org/2000/svg">
<g filter="url(#filter0_b_273_5)">
<rect x="-92.6672" width="219.508" height="126.383" rx="20" transform="rotate(7.42525 -92.6672 0)" fill="white"/>
</g>
<path d="M81.7514 64.2282L66.9506 78.0724C66.5651 78.4329 65.9407 78.4329 65.5554 78.0724C65.1699 77.7118 65.1699 77.1278 65.5554 76.7673L78.6718 64.4986L35.6647 64.4986C35.1193 64.4986 34.6779 64.0858 34.6779 63.5756C34.6779 63.0655 35.1193 62.6527 35.6647 62.6527L78.6718 62.6527L65.5554 50.3841C65.1699 50.0235 65.1699 49.4395 65.5554 49.079C65.748 48.8988 66.0006 48.8086 66.253 48.8086C66.5055 48.8086 66.7579 48.8988 66.9507 49.079L81.7515 62.9231C82.1369 63.2836 82.1369 63.8677 81.7514 64.2282Z" fill="black"/>
<defs>
<filter id="filter0_b_273_5" x="-146.585" y="-37.5852" width="309.171" height="228.862" filterUnits="userSpaceOnUse" color-interpolation-filters="sRGB">
<feFlood flood-opacity="0" result="BackgroundImageFix"/>
<feGaussianBlur in="BackgroundImageFix" stdDeviation="20"/>
<feComposite in2="SourceAlpha" operator="in" result="effect1_backgroundBlur_273_5"/>
<feBlend mode="normal" in="SourceGraphic" in2="effect1_backgroundBlur_273_5" result="shape"/>
</filter>
</defs>
</svg>
